<svg width="16" height="16" viewBox="0 0 16 16" fill="none" xmlns="http://www.w3.org/2000/svg">
<path d="M15.3038 6.39676C14.9722 6.07574 14.6399 5.75234 14.307 5.42654C14.2977 4.97529 14.2859 4.52425 14.2718 4.07341C14.253 3.46956 13.9909 2.89349 13.5443 2.44598C13.0978 1.99848 12.5186 1.73915 11.9141 1.72012C11.4622 1.70618 11.0104 1.69453 10.5585 1.68516C10.2327 1.35354 9.9097 1.02233 9.58952 0.691541C9.15605 0.247782 8.59496 -0.000311773 7.99797 2.94046e-07C7.40099 0.000312361 6.83958 0.249654 6.40893 0.691541C6.08708 1.02296 5.76305 1.35489 5.43684 1.68735C4.98496 1.6965 4.53319 1.70815 4.08153 1.7223C2.837 1.76474 1.76599 2.8342 1.72355 4.07529C1.70961 4.52654 1.69785 4.97758 1.68828 5.42841C1.35541 5.754 1.02316 6.0773 0.691541 6.39832C0.248718 6.82866 0 7.39038 0 7.9833C0 8.57623 0.247157 9.13795 0.691541 9.56985C1.02316 9.89066 1.35604 10.2137 1.69016 10.5388C1.6991 10.9901 1.71075 11.4414 1.72511 11.8929C1.74414 12.4977 2.00597 13.0722 2.45222 13.5203C2.89848 13.9684 3.47737 14.2271 4.08278 14.2459C4.53465 14.2602 4.98652 14.272 5.4384 14.2811C5.76419 14.6125 6.08781 14.9436 6.40924 15.2741C6.84083 15.7179 7.40255 15.966 8.00078 15.9657C8.59901 15.9654 9.15917 15.7179 9.59232 15.2744C9.91375 14.9432 10.2375 14.6116 10.5635 14.2796C11.0154 14.2702 11.4671 14.2585 11.9188 14.2443C13.163 14.2022 14.234 13.1327 14.2765 11.8913C14.2906 11.4405 14.3023 10.9897 14.3114 10.5388C14.6443 10.213 14.9766 9.88962 15.3085 9.56861C15.7513 9.13858 16 8.57748 16 7.98237C16 7.38726 15.7472 6.82866 15.3038 6.39676ZM11.9706 6.97127C10.6231 8.37152 9.25404 9.80297 7.90778 11.2229C7.79838 11.3388 7.66649 11.4312 7.52017 11.4944C7.37385 11.5576 7.21617 11.5903 7.05678 11.5905H7.05147C6.89225 11.5894 6.73485 11.5565 6.58854 11.4937C6.44223 11.4309 6.30996 11.3395 6.19953 11.2247C5.47969 10.4814 4.75757 9.74076 4.03316 9.00283C3.92362 8.89267 3.83719 8.76174 3.77897 8.61771C3.72074 8.47369 3.69189 8.31948 3.6941 8.16415C3.69631 8.00882 3.72954 7.85549 3.79184 7.71318C3.85413 7.57087 3.94425 7.44245 4.05687 7.33545C4.28383 7.11616 4.58819 6.99533 4.90376 6.99925C5.21933 7.00316 5.52059 7.13151 5.74204 7.35636C6.17248 7.79763 6.60345 8.24014 7.03493 8.6839C8.10376 7.56389 9.1779 6.43701 10.2352 5.32792C10.6839 4.85577 11.4326 4.84797 11.9138 5.30358C12.395 5.7592 12.4228 6.50161 11.9706 6.97127Z" fill="#48D36D"/>
</svg>
