<svg width="15" height="19" viewBox="0 0 15 19" fill="none" xmlns="http://www.w3.org/2000/svg">
<path d="M13.5 3.5H1.5C0.675 3.5 0 4.175 0 5V14C0 14.825 0.675 15.5 1.5 15.5H13.5C14.325 15.5 15 14.825 15 14V5C15 4.175 14.325 3.5 13.5 3.5ZM13.5 14H1.5V5H13.5V14ZM1.5 0.5H13.5V2H1.5V0.5ZM1.5 17H13.5V18.5H1.5V17ZM7.5 9.5C8.535 9.5 9.375 8.66 9.375 7.625C9.375 6.59 8.535 5.75 7.5 5.75C6.465 5.75 5.625 6.59 5.625 7.625C5.625 8.66 6.465 9.5 7.5 9.5ZM7.5 6.875C7.9125 6.875 8.25 7.2125 8.25 7.625C8.25 8.0375 7.9125 8.375 7.5 8.375C7.0875 8.375 6.75 8.0375 6.75 7.625C6.75 7.2125 7.0875 6.875 7.5 6.875ZM11.25 12.4925C11.25 10.925 8.7675 10.25 7.5 10.25C6.2325 10.25 3.75 10.925 3.75 12.4925V13.25H11.25V12.4925ZM5.1075 12.125C5.565 11.735 6.63 11.375 7.5 11.375C8.3775 11.375 9.4425 11.735 9.9 12.125H5.1075Z" fill="#71839B"/>
<path d="M5.1075 12.125C5.565 11.735 6.63 11.375 7.5 11.375C8.3775 11.375 9.4425 11.735 9.9 12.125H5.1075Z" fill="#71839B"/>
<path d="M7.5 6.875C7.9125 6.875 8.25 7.2125 8.25 7.625C8.25 8.0375 7.9125 8.375 7.5 8.375C7.0875 8.375 6.75 8.0375 6.75 7.625C6.75 7.2125 7.0875 6.875 7.5 6.875Z" fill="#71839B"/>
</svg>
