<svg width="46" height="46" viewBox="0 0 46 46" fill="none" xmlns="http://www.w3.org/2000/svg">
<circle cx="23" cy="23" r="23" fill="#F8F8F8"/>
<path d="M14.5843 22.2813C14.5152 22.2746 14.4322 22.2746 14.3562 22.2813C12.7108 22.2277 11.4041 20.9215 11.4041 19.3138C11.4041 17.6727 12.773 16.3397 14.4737 16.3397C16.1675 16.3397 17.5433 17.6727 17.5433 19.3138C17.5364 20.9215 16.2297 22.2277 14.5843 22.2813Z" fill="#71839B"/>
<path d="M11.1276 24.753C9.45454 25.8381 9.45454 27.6065 11.1276 28.685C13.0288 29.9175 16.1468 29.9175 18.048 28.685C19.7211 27.5998 19.7211 25.8314 18.048 24.753C16.1537 23.5272 13.0357 23.5272 11.1276 24.753Z" fill="#71839B"/>
<path d="M30.5198 22.2813C30.4507 22.2746 30.3677 22.2746 30.2917 22.2813C28.6462 22.2277 27.3396 20.9215 27.3396 19.3138C27.3396 17.6727 28.7085 16.3397 30.4092 16.3397C32.103 16.3397 33.4788 17.6727 33.4788 19.3138C33.4719 20.9215 32.1652 22.2277 30.5198 22.2813Z" fill="#71839B"/>
<path d="M27.0631 24.753C25.39 25.8381 25.39 27.6065 27.0631 28.685C28.9643 29.9175 32.0823 29.9175 33.9835 28.685C35.6566 27.5998 35.6566 25.8314 33.9835 24.753C32.0892 23.5272 28.9712 23.5272 27.0631 24.753Z" fill="#71839B"/>
<path d="M22.9847 22.771C23.0283 22.7753 23.0721 22.7768 23.1159 22.7753C26.26 22.6711 28.7735 20.1278 28.7868 16.9809H28.7868V16.9767C28.7868 13.7567 26.1383 11.1667 22.907 11.1667C19.6631 11.1667 17.0271 13.7581 17.0271 16.9767C17.0271 20.1276 19.5437 22.6712 22.687 22.7753C22.7278 22.7767 22.7687 22.7755 22.8094 22.7719C22.874 22.7661 22.9429 22.7669 22.9847 22.771Z" fill="#71839B" stroke="#F8F8F8" stroke-width="2" stroke-linecap="round" stroke-linejoin="round"/>
<path d="M17.0404 24.9362L17.0404 24.9362L17.0367 24.9386C15.5012 25.9518 14.5927 27.3878 14.5927 28.957C14.5927 30.5264 15.5015 31.96 17.038 32.968C18.7472 34.0949 20.9445 34.6275 23.0883 34.6275C25.2325 34.6275 27.4303 34.0946 29.1397 32.9673L29.1399 32.9671C30.6754 31.954 31.5839 30.518 31.5839 28.9488C31.5839 27.3792 30.6749 25.9455 29.1382 24.9376C27.434 23.8159 25.2393 23.2864 23.0965 23.2864C20.9531 23.2864 18.7542 23.8162 17.0404 24.9362Z" fill="#71839B" stroke="#F8F8F8" stroke-width="2" stroke-linecap="round" stroke-linejoin="round"/>
</svg>
