<svg width="16" height="12" viewBox="0 0 16 12" fill="none" xmlns="http://www.w3.org/2000/svg">
<path d="M1.06667 2.13335H14.9333C15.2162 2.13335 15.4875 2.02097 15.6876 1.82093C15.8876 1.62089 16 1.34958 16 1.06668C16 0.783784 15.8876 0.512473 15.6876 0.312435C15.4875 0.112396 15.2162 1.52588e-05 14.9333 1.52588e-05H1.06667C0.783769 1.52588e-05 0.512458 0.112396 0.312419 0.312435C0.112381 0.512473 0 0.783784 0 1.06668C0 1.34958 0.112381 1.62089 0.312419 1.82093C0.512458 2.02097 0.783769 2.13335 1.06667 2.13335ZM14.9333 4.80002H1.06667C0.783769 4.80002 0.512458 4.9124 0.312419 5.11244C0.112381 5.31247 0 5.58378 0 5.86668C0 6.14958 0.112381 6.42089 0.312419 6.62093C0.512458 6.82097 0.783769 6.93335 1.06667 6.93335H14.9333C15.2162 6.93335 15.4875 6.82097 15.6876 6.62093C15.8876 6.42089 16 6.14958 16 5.86668C16 5.58378 15.8876 5.31247 15.6876 5.11244C15.4875 4.9124 15.2162 4.80002 14.9333 4.80002ZM14.9333 9.60002H1.06667C0.783769 9.60002 0.512458 9.7124 0.312419 9.91244C0.112381 10.1125 0 10.3838 0 10.6667C0 10.9496 0.112381 11.2209 0.312419 11.4209C0.512458 11.621 0.783769 11.7333 1.06667 11.7333H14.9333C15.2162 11.7333 15.4875 11.621 15.6876 11.4209C15.8876 11.2209 16 10.9496 16 10.6667C16 10.3838 15.8876 10.1125 15.6876 9.91244C15.4875 9.7124 15.2162 9.60002 14.9333 9.60002Z" fill="#71839B"/>
</svg>
