<svg width="19" height="15" viewBox="0 0 19 15" fill="none" xmlns="http://www.w3.org/2000/svg">
<path fill-rule="evenodd" clip-rule="evenodd" d="M9.5004 9.07641L9.58856 9.07643L9.78579 9.0771C11.2932 9.08703 14.7381 9.23931 14.7381 11.5742C14.7381 13.8938 11.4133 14.0451 9.80928 14.055L9.215 14.055C7.70748 14.045 4.26192 13.893 4.26192 11.561C4.26192 9.23844 7.70748 9.08698 9.215 9.0771L9.41223 9.07643C9.44283 9.07641 9.47224 9.07641 9.5004 9.07641ZM9.5004 10.2476C7.64519 10.2476 5.43314 10.4756 5.43314 11.561C5.43314 12.6217 7.51316 12.8697 9.33083 12.8838L9.5004 12.8844C11.3556 12.8844 13.5669 12.6572 13.5669 11.5742C13.5669 10.478 11.3556 10.2476 9.5004 10.2476ZM15.7107 8.75955C17.6026 9.04299 18 9.93155 18 10.6273C18 11.052 17.8329 11.8274 16.7164 12.2529C16.6476 12.2787 16.5774 12.2912 16.5079 12.2912C16.2721 12.2912 16.0495 12.1475 15.9605 11.914C15.845 11.6119 15.9972 11.273 16.2994 11.1582C16.8288 10.9568 16.8288 10.7342 16.8288 10.6273C16.8288 10.2853 16.3939 10.0463 15.5366 9.91828C15.2172 9.86987 14.9962 9.57238 15.0439 9.25147C15.0915 8.93133 15.3882 8.71817 15.7107 8.75955ZM3.95616 9.25147C4.00379 9.57238 3.78282 9.86987 3.46347 9.91828C2.60613 10.0463 2.17122 10.2853 2.17122 10.6273C2.17122 10.7342 2.17122 10.956 2.70139 11.1582C3.00357 11.273 3.15582 11.6119 3.04026 11.914C2.95125 12.1475 2.72872 12.2912 2.49291 12.2912C2.42342 12.2912 2.35315 12.2787 2.28444 12.2529C1.16709 11.8266 1 11.0512 1 10.6273C1 9.93233 1.39743 9.04299 3.29012 8.75955C3.6126 8.71895 3.90775 8.93133 3.95616 9.25147ZM9.5004 0.945023C11.468 0.945023 13.0679 2.54569 13.0679 4.51256C13.0679 6.47942 11.468 8.08009 9.5004 8.08009H9.47932C8.52673 8.07697 7.63426 7.70374 6.96588 7.02912C6.29594 6.35528 5.92974 5.46046 5.93361 4.51021C5.93361 2.54569 7.53353 0.945023 9.5004 0.945023ZM9.5004 2.11624C8.17926 2.11624 7.10485 3.19142 7.10485 4.51256C7.10252 5.15282 7.3477 5.75171 7.79667 6.2038C8.24563 6.65589 8.84374 6.90653 9.48088 6.90887L9.5004 7.49448V6.90887C10.8215 6.90887 11.8967 5.83447 11.8967 4.51256C11.8967 3.19142 10.8215 2.11624 9.5004 2.11624ZM14.3329 1.70983C15.7055 1.93548 16.7026 3.10983 16.7026 4.50202C16.6995 5.90357 15.6524 7.10603 14.2665 7.30045C14.2392 7.30435 14.2118 7.30591 14.1853 7.30591C13.8979 7.30591 13.6473 7.09432 13.6059 6.80151C13.5614 6.4806 13.7839 6.18467 14.1049 6.14016C14.9169 6.02616 15.5298 5.32187 15.5314 4.50045C15.5314 3.68607 14.9474 2.99739 14.1423 2.86543C13.8238 2.81312 13.6075 2.51172 13.6598 2.19237C13.7129 1.87302 14.0119 1.65908 14.3329 1.70983ZM5.34101 2.19237C5.39332 2.51172 5.17704 2.81312 4.85847 2.86543C4.05345 2.99739 3.4694 3.68607 3.4694 4.50202C3.47096 5.32187 4.0839 6.02694 4.89516 6.14016C5.21608 6.18467 5.43861 6.4806 5.3941 6.80151C5.35272 7.09432 5.10208 7.30591 4.81474 7.30591C4.78819 7.30591 4.76086 7.30435 4.73354 7.30045C3.34759 7.10603 2.3013 5.90357 2.29818 4.50358C2.29818 3.10983 3.29528 1.93548 4.66795 1.70983C4.99667 1.6583 5.28791 1.87458 5.34101 2.19237Z" fill="#71839B" stroke="#71839B" stroke-width="0.4"/>
</svg>
