<svg width="21" height="31" viewBox="0 0 21 31" fill="none" xmlns="http://www.w3.org/2000/svg">
<path d="M10.8041 14.0404C10.6708 14.0275 10.5109 14.0275 10.3642 14.0404C7.19136 13.9371 4.67175 11.4183 4.67175 8.31831C4.67175 5.15373 7.31135 2.58331 10.5908 2.58331C13.857 2.58331 16.5099 5.15373 16.5099 8.31831C16.4966 11.4183 13.977 13.9371 10.8041 14.0404Z" fill="#71839B" stroke="#71839B" stroke-width="1.5" stroke-linecap="round" stroke-linejoin="round"/>
<path d="M4.1385 18.8067C0.91233 20.8992 0.91233 24.3092 4.1385 26.3888C7.8046 28.7654 13.817 28.7654 17.4831 26.3888C20.7093 24.2963 20.7093 20.8863 17.4831 18.8067C13.8303 16.4429 7.81793 16.4429 4.1385 18.8067Z" fill="#71839B" stroke="#71839B" stroke-width="1.5" stroke-linecap="round" stroke-linejoin="round"/>
</svg>
