<svg width="17" height="17" viewBox="0 0 17 17" fill="none" xmlns="http://www.w3.org/2000/svg">
<path fill-rule="evenodd" clip-rule="evenodd" d="M9.76055 16.8298C9.08021 16.9611 8.05196 16.976 7.3508 16.8545C7.17811 16.8247 6.99868 16.6641 6.94974 16.4959L6.49496 14.9311C6.44602 14.7629 6.28346 14.5553 6.13186 14.4678L4.48402 13.5167C4.33243 13.4292 4.07199 13.3949 3.90296 13.4402L2.35074 13.8561C2.18171 13.9014 1.95277 13.8294 1.83999 13.6958C1.4063 13.1822 0.91355 12.3267 0.687707 11.7133C0.627238 11.549 0.676457 11.3133 0.797394 11.1868L1.96458 9.96981C2.08552 9.84353 2.18396 9.59884 2.18396 9.42362V7.52097C2.18396 7.34603 2.08355 7.10331 1.9598 6.97956L0.796269 5.81631C0.672519 5.69256 0.621332 5.45884 0.681801 5.29459C0.735801 5.14806 0.939425 4.71156 1.18411 4.288C1.43414 3.85515 1.7168 3.45268 1.82368 3.32528C1.93589 3.19112 2.16511 3.11603 2.33527 3.15793L3.99577 3.56575C4.16564 3.60737 4.42693 3.57025 4.57852 3.48278L6.22608 2.53131C6.37768 2.44384 6.53771 2.23544 6.58299 2.0664L7.00261 0.500122C7.04789 0.331091 7.2248 0.170216 7.39749 0.140966C8.03171 0.0340912 9.00849 0.0349349 9.65958 0.151935C9.83171 0.182872 10.0083 0.345154 10.0536 0.514185L10.4696 2.0664C10.5149 2.23544 10.6749 2.44384 10.8262 2.53131L12.4741 3.48278C12.6256 3.57025 12.8861 3.60456 13.0551 3.55928L14.6073 3.14331C14.7764 3.09803 15.0053 3.16975 15.1181 3.30334C15.5703 3.83884 16.0732 4.72281 16.3024 5.36462C16.3612 5.52972 16.3086 5.764 16.1849 5.88775L15.0928 6.97956C14.969 7.10331 14.8686 7.34603 14.8686 7.52097V9.42362C14.8686 9.59884 14.969 9.84128 15.0928 9.96503L16.2012 11.0734C16.3249 11.1972 16.3781 11.4317 16.3199 11.5968C16.2555 11.7797 16.0386 12.2527 15.774 12.7114C15.5239 13.1443 15.2413 13.5467 15.1344 13.6744C15.0219 13.8083 14.7932 13.8806 14.6242 13.8353L13.1496 13.4402C12.9803 13.3949 12.7201 13.4292 12.5686 13.5167L10.9207 14.4678C10.7691 14.5553 10.6094 14.7637 10.5641 14.9327L10.154 16.4633C10.1087 16.6323 9.93239 16.7966 9.76055 16.8298ZM4.69355 8.49972C4.69355 6.39934 6.39849 4.69412 8.49886 4.69412C10.599 4.69412 12.3042 6.39934 12.3042 8.49972C12.3042 10.5998 10.599 12.305 8.49886 12.305C6.39849 12.305 4.69355 10.5998 4.69355 8.49972Z" fill="#71839B"/>
</svg>
